<?xml version="1.0" standalone="no"?>
<!DOCTYPE svg PUBLIC "-//W3C//DTD SVG 20010904//EN"
 "http://www.w3.org/TR/2001/REC-SVG-20010904/DTD/svg10.dtd">
<svg version="1.0" xmlns="http://www.w3.org/2000/svg"
 width="512.000000pt" height="512.000000pt" viewBox="0 0 512.000000 512.000000"
 preserveAspectRatio="xMidYMid meet">

<g transform="translate(0.000000,512.000000) scale(0.100000,-0.100000)"
fill="#000000" stroke="none">
<path d="M655 4920 c-319 -35 -574 -268 -640 -585 -22 -105 -22 -2645 0 -2750
49 -235 203 -427 419 -525 107 -49 174 -60 389 -67 l197 -6 0 -321 c0 -180 4
-337 10 -356 5 -20 25 -51 45 -70 46 -45 125 -54 180 -21 20 12 253 189 518
394 l482 372 1120 6 c1234 6 1164 2 1311 69 216 98 370 290 419 525 22 105 22
2645 0 2750 -59 280 -264 495 -548 572 -57 16 -207 17 -1947 19 -1037 1 -1916
-2 -1955 -6z m3887 -338 c110 -45 191 -129 240 -251 l23 -56 0 -1315 0 -1315
-23 -56 c-49 -122 -130 -206 -240 -251 l-57 -23 -1155 -5 c-1050 -5 -1158 -7
-1185 -22 -16 -9 -205 -152 -420 -317 l-390 -302 -5 263 c-6 294 -9 311 -80
353 -32 18 -57 20 -325 25 -271 5 -294 7 -347 28 -110 44 -191 129 -240 251
l-23 56 -3 1264 c-1 763 1 1292 7 1333 13 94 59 187 121 248 58 56 90 75 170
101 52 17 158 18 1965 16 l1910 -2 57 -23z"/>
</g>
</svg>
