<?xml version="1.0" standalone="no"?>
<!DOCTYPE svg PUBLIC "-//W3C//DTD SVG 20010904//EN"
 "http://www.w3.org/TR/2001/REC-SVG-20010904/DTD/svg10.dtd">
<svg version="1.0" xmlns="http://www.w3.org/2000/svg"
 width="512.000000pt" height="512.000000pt" viewBox="0 0 512.000000 512.000000"
 preserveAspectRatio="xMidYMid meet">

<g transform="translate(0.000000,512.000000) scale(0.100000,-0.100000)"
fill="#000000" stroke="none">
<path d="M2405 4121 c-247 -71 -425 -304 -425 -556 0 -211 128 -418 318 -513
105 -52 171 -66 297 -60 210 11 385 125 480 312 85 169 84 354 -2 525 -71 141
-214 255 -369 295 -81 21 -222 20 -299 -3z"/>
<path d="M792 3660 c-125 -33 -236 -107 -313 -211 -56 -73 -77 -117 -100 -206
-51 -200 3 -393 152 -545 86 -88 176 -138 294 -163 88 -18 142 -19 230 0 205
43 380 204 439 403 60 205 3 417 -153 572 -149 149 -347 203 -549 150z"/>
<path d="M4054 3666 c-161 -37 -320 -163 -389 -307 -112 -236 -71 -482 110
-665 82 -82 180 -136 290 -159 129 -27 244 -11 374 50 99 47 211 159 259 259
109 225 66 492 -108 666 -59 59 -153 117 -229 141 -84 27 -225 33 -307 15z"/>
<path d="M2152 2735 c-305 -68 -553 -320 -616 -628 -13 -63 -16 -159 -16 -568
l0 -491 34 -34 34 -34 972 0 972 0 34 34 34 34 0 491 c0 409 -3 505 -16 568
-59 289 -269 519 -559 614 -67 22 -85 23 -440 26 -287 2 -384 -1 -433 -12z"/>
<path d="M561 2270 c-163 -43 -299 -154 -370 -302 -21 -46 -44 -107 -50 -136
-7 -33 -11 -194 -11 -418 l0 -366 34 -34 34 -34 548 0 549 0 -3 539 c-3 510
-2 544 18 639 11 55 20 102 20 105 0 18 -133 27 -398 26 -260 0 -306 -2 -371
-19z"/>
<path d="M3836 2279 c-22 -5 -41 -11 -43 -13 -2 -2 6 -50 17 -106 20 -97 21
-128 18 -641 l-3 -539 549 0 548 0 34 34 34 34 0 366 c0 224 -4 385 -11 418
-6 29 -29 91 -51 137 -72 150 -206 258 -374 301 -69 18 -109 20 -378 19 -166
-1 -319 -5 -340 -10z"/>
</g>
</svg>
