<?xml version="1.0" standalone="no"?>
<!DOCTYPE svg PUBLIC "-//W3C//DTD SVG 20010904//EN"
 "http://www.w3.org/TR/2001/REC-SVG-20010904/DTD/svg10.dtd">
<svg version="1.0" xmlns="http://www.w3.org/2000/svg"
 width="1024.000000pt" height="1024.000000pt" viewBox="0 0 1024.000000 1024.000000"
 preserveAspectRatio="xMidYMid meet">

<g transform="translate(0.000000,1024.000000) scale(0.100000,-0.100000)"
fill="#000000" stroke="none">
<path d="M4955 8504 c-324 -20 -596 -69 -862 -155 -1027 -333 -1825 -1101
-2183 -2100 -108 -301 -179 -656 -201 -1000 -20 -327 20 -743 101 -1044 227
-851 728 -1545 1455 -2018 325 -211 762 -392 1126 -466 958 -195 1916 -2 2689
543 168 118 276 211 445 380 374 375 644 807 810 1299 178 529 230 1117 144
1637 -27 160 -67 342 -78 353 -5 5 -70 -33 -152 -90 -106 -73 -144 -104 -143
-119 1 -10 9 -73 17 -139 33 -246 48 -636 28 -730 l-6 -30 -315 -2 c-173 -1
-347 0 -387 3 l-72 6 -78 108 c-43 59 -136 190 -208 291 -71 101 -149 203
-171 225 -72 72 -185 82 -276 25 -52 -33 -64 -48 -167 -206 -43 -66 -186 -284
-317 -485 -132 -201 -257 -393 -279 -427 -22 -35 -42 -63 -45 -63 -7 0 -189
928 -261 1335 -11 66 -32 179 -45 250 -14 72 -34 180 -45 240 -44 237 -70 339
-94 381 -61 105 -216 131 -322 55 -56 -41 -88 -115 -228 -534 -107 -322 -267
-794 -428 -1264 -44 -126 -65 -178 -72 -171 -3 3 -453 777 -573 983 -172 298
-183 316 -223 345 -58 41 -124 53 -189 34 -59 -17 -123 -70 -150 -125 -18 -35
-208 -692 -279 -965 l-11 -41 -419 -2 -419 -2 -7 98 c-16 212 11 535 70 828
142 708 561 1361 1146 1787 518 377 1009 562 1619 609 699 53 1429 -158 2015
-584 157 -114 211 -161 379 -329 82 -82 150 -147 151 -146 8 10 45 451 38 461
-23 39 -229 214 -371 315 -486 348 -1032 560 -1612 626 -138 16 -437 27 -545
20z m213 -2856 c27 -115 246 -1279 333 -1777 11 -62 27 -130 35 -150 45 -108
167 -159 270 -112 53 24 91 71 215 266 145 228 436 678 657 1017 43 65 79 117
82 117 3 0 84 -111 180 -246 189 -266 215 -292 311 -312 31 -7 204 -11 446
-11 l395 0 -7 -47 c-16 -111 -89 -351 -157 -516 -321 -785 -958 -1399 -1758
-1694 -197 -73 -350 -113 -560 -147 -363 -60 -655 -57 -1036 9 -764 134 -1492
591 -1942 1222 -232 325 -425 753 -495 1100 l-14 68 471 5 c424 4 475 7 510
23 56 25 101 61 125 101 12 18 57 168 102 332 44 165 89 330 100 368 l20 68
88 -153 c48 -85 139 -244 203 -354 63 -110 188 -328 278 -485 89 -157 177
-300 194 -318 60 -64 132 -83 220 -58 102 30 134 74 204 281 225 669 469 1371
482 1390 4 6 10 22 14 38 10 41 20 33 34 -25z"/>
<path d="M3358 3850 c-77 -23 -127 -96 -128 -183 0 -141 139 -228 267 -166 81
39 127 133 104 212 -33 111 -137 169 -243 137z"/>
<path d="M6734 3841 c-114 -53 -145 -203 -61 -298 77 -87 203 -83 284 10 73
83 51 205 -48 279 -38 29 -125 33 -175 9z"/>
<path d="M5060 3579 c-14 -5 -36 -20 -48 -32 -50 -47 -52 -57 -52 -349 1 -305
4 -321 70 -366 29 -20 44 -23 88 -20 65 6 99 29 130 89 22 43 23 50 20 309 -3
244 -5 268 -23 299 -11 19 -32 43 -46 54 -31 23 -103 31 -139 16z"/>
<path d="M7924 7874 c-42 -95 -83 -229 -111 -363 -21 -103 -26 -155 -27 -286
-1 -250 29 -371 164 -655 78 -165 126 -296 137 -377 3 -24 9 -43 14 -43 15 0
155 118 207 174 305 335 322 802 43 1221 -77 115 -260 297 -374 370 l-27 17
-26 -58z"/>
<path d="M2130 7838 c-72 -49 -73 -157 -1 -205 19 -13 45 -23 58 -23 80 0 144
82 124 158 -23 82 -112 117 -181 70z"/>
<path d="M6579 7006 c-2 -2 -31 -6 -64 -8 -33 -1 -63 -7 -66 -12 -18 -24 85
-281 166 -413 71 -115 130 -188 217 -266 225 -201 531 -298 853 -270 l90 8 -2
55 c-4 118 -84 329 -180 473 -188 283 -499 437 -884 437 -69 0 -128 -2 -130
-4z"/>
</g>
</svg>
